# xmcd
#
# Track frame offsets: 
#        150
#        10553
#        23086
#        33190
#        44051
#        56311
#        68375
#        80073
#        94052
#        109940
#        123261
#        135893
#        149234
#        160513
#        171113
#        184544
#        195494
#        213029
#
# Disc length: 2988 seconds
#
# Revision: 0
# Processed by: cddbd v1.5.2PL0 Copyright (c) Steve Scherf et al.
# Submitted via: ExactAudioCopy v0.95b4
#
DISCID=e00baa12
DTITLE=Various Artist - Country Ballads [CD03)
DYEAR=2007
DGENRE=Country
TTITLE0=Patsy Cline - Lovesick Blues
TTITLE1=Stonewall Jackson - Me and You And A Dog Named Boo
TTITLE2=Jim Reeves - Dear Hearts And Gentle People
TTITLE3=Roger Miller - Husbands And Wives
TTITLE4=Freddy Fender - Wasted Days And Wasted Nights
TTITLE5=Hank Thompson - Wild Side Of Life
TTITLE6=Charlie Walker - Pick Me Up On Your Way Down
TTITLE7=Hank Locklin - Baby, I Need You
TTITLE8=Skeeter Davis - I Honestly Love You
TTITLE9=Nat Stuckey - Sweet Thang
TTITLE10=Bobby Helms - Fraulein
TTITLE11=Mickey Gilley - A Room Full Of Roses
TTITLE12=Connie Smith - Just One Time
TTITLE13=Billy Walker - Charlie's Shoes
TTITLE14=Johnny Paycheck - Someone To Give My Love To
TTITLE15=Johnny Russel - Blue Eyes Crying In The Rain
TTITLE16=Lynn Anderson - Close To You
TTITLE17=Willie Nelson - Suffering In Silence
EXTD=
EXTT0=
EXTT1=
EXTT2=
EXTT3=
EXTT4=
EXTT5=
EXTT6=
EXTT7=
EXTT8=
EXTT9=
EXTT10=
EXTT11=
EXTT12=
EXTT13=
EXTT14=
EXTT15=
EXTT16=
EXTT17=
PLAYORDER=
